<svg class="icon" height="200" p-id="2855" t="1646400268090" version="1.1" viewBox="0 0 1024 1024"
    width="200" xmlns="http://www.w3.org/2000/svg">
    <path d="M511.2 175.6h-52.1v677.2h52.1V410h338.7v-52.1H511.2z" fill="#2196F3"
        p-id="2856"></path>
    <path
        d="M797.8 97.5h-573c-72.9 0-130.2 57.3-130.2 130.2v573c0 72.9 57.3 130.2 130.2 130.2h573c72.9 0 130.2-57.3 130.2-130.2v-573c0-72.9-57.3-130.2-130.2-130.2z m78.1 703.2c0 41.7-36.5 78.1-78.1 78.1h-573c-41.7 0-78.1-36.5-78.1-78.1v-573c0-41.7 36.5-78.1 78.1-78.1h573c41.7 0 78.1 36.5 78.1 78.1v573z"
        fill="#2196F3" p-id="2857"></path>
</svg>